<?xml version="1.0" standalone="no"?>
<!DOCTYPE svg PUBLIC "-//W3C//DTD SVG 20010904//EN"
 "http://www.w3.org/TR/2001/REC-SVG-20010904/DTD/svg10.dtd">
<svg version="1.0" xmlns="http://www.w3.org/2000/svg"
 width="768.000000pt" height="768.000000pt" viewBox="0 0 768.000000 768.000000"
 preserveAspectRatio="xMidYMid meet">
<metadata>
Created by potrace 1.11, written by Peter Selinger 2001-2013
</metadata>
<g transform="translate(0.000000,768.000000) scale(0.100000,-0.100000)"
fill="#000000" stroke="none">
<path d="M3753 7496 c-19 -24 -44 -87 -76 -191 -8 -27 -36 -115 -62 -195 -26
-80 -48 -149 -49 -155 -1 -5 -14 -46 -28 -90 -14 -44 -58 -181 -98 -305 -39
-124 -97 -304 -128 -400 -31 -96 -57 -177 -57 -180 -7 -28 -19 -67 -24 -75 -3
-5 -6 -15 -7 -22 -1 -7 -12 -43 -24 -80 -24 -77 -27 -85 -29 -95 -1 -5 -10
-32 -20 -60 -11 -29 -43 -127 -71 -218 -29 -91 -65 -205 -81 -255 -16 -49 -29
-92 -28 -95 1 -3 -6 -22 -14 -42 -9 -21 -13 -38 -10 -38 3 0 0 -8 -9 -17 -8
-10 -19 -29 -25 -43 -26 -62 -105 -129 -193 -165 -43 -18 -108 -19 -1350 -20
-718 -2 -1306 -4 -1307 -5 -2 -1 -6 -3 -10 -4 -25 -5 -53 -29 -53 -45 0 -10
10 -31 22 -46 18 -24 218 -178 323 -251 17 -11 39 -28 50 -37 11 -9 63 -48
115 -86 52 -39 124 -92 160 -118 36 -26 66 -51 68 -55 2 -5 10 -8 17 -8 7 0
15 -3 17 -8 2 -4 37 -32 78 -63 153 -114 439 -325 555 -411 66 -48 125 -92
130 -96 6 -4 75 -56 155 -115 80 -59 152 -113 160 -120 8 -7 34 -25 57 -41 24
-16 43 -33 43 -38 0 -5 5 -6 10 -3 5 3 10 2 10 -2 0 -5 12 -16 28 -25 96 -58
194 -166 208 -230 1 -5 2 -9 4 -10 15 -20 22 -151 10 -198 -15 -61 -10 -45
-74 -242 -32 -97 -58 -183 -60 -190 -1 -7 -7 -26 -13 -43 -12 -30 -145 -448
-148 -465 -1 -3 -31 -97 -67 -210 -37 -113 -77 -236 -89 -275 -11 -38 -32
-101 -45 -140 -12 -38 -48 -151 -79 -250 -31 -99 -62 -198 -70 -220 -22 -65
-129 -399 -132 -415 -14 -65 -14 -98 2 -113 21 -21 38 -21 78 0 30 15 136 89
147 103 3 3 18 14 35 24 16 11 34 23 40 28 9 8 130 97 184 136 13 9 28 22 35
27 6 6 36 28 66 50 30 22 57 43 58 47 2 5 10 8 17 8 8 0 18 6 22 13 4 7 25 23
45 37 21 14 38 28 38 33 0 4 7 7 15 7 8 0 15 3 15 8 1 4 23 23 51 42 45 31
357 261 419 309 14 10 90 67 170 125 80 59 156 116 170 126 14 11 95 71 180
135 85 63 201 149 258 191 144 107 199 132 295 139 10 0 9 5737 -2 5748 -5 5
-17 -2 -28 -17z"/>
<path d="M3844 7509 c-10 -17 -12 -59 -3 -59 4 0 4 -13 -1 -29 -4 -15 -4 -34
1 -42 4 -7 4 -18 -1 -24 -5 -6 -5 -17 0 -25 4 -7 4 -24 0 -36 -6 -14 -5 -26 0
-29 6 -3 6 -15 0 -30 -6 -15 -6 -25 0 -25 5 0 5 -12 0 -30 -5 -18 -5 -30 0
-30 6 0 6 -10 0 -25 -5 -14 -5 -27 0 -30 5 -3 5 -18 1 -33 -5 -15 -5 -37 0
-49 5 -13 4 -25 -1 -28 -6 -4 -7 -13 -1 -24 5 -9 6 -23 1 -31 -4 -7 -4 -24 1
-37 5 -14 5 -23 -1 -23 -6 0 -6 -9 -1 -23 5 -13 6 -30 1 -37 -5 -7 -4 -24 0
-36 6 -14 5 -26 0 -29 -6 -4 -7 -13 -1 -24 5 -9 6 -23 1 -31 -4 -7 -4 -24 1
-37 5 -14 5 -23 -1 -23 -6 0 -6 -9 -1 -23 5 -13 6 -30 1 -37 -5 -7 -4 -24 0
-36 6 -14 5 -26 0 -29 -6 -4 -7 -13 -1 -24 5 -9 6 -23 1 -31 -4 -7 -4 -24 1
-37 5 -13 5 -23 -1 -23 -5 0 -5 -12 0 -30 5 -18 5 -32 -1 -35 -5 -4 -5 -13 1
-24 5 -10 7 -21 3 -25 -8 -8 -7 -232 2 -245 3 -6 3 -11 -2 -11 -9 0 -8 -202 1
-225 3 -8 2 -15 -2 -15 -8 0 -7 -203 2 -225 3 -8 2 -15 -2 -15 -8 0 -7 -203 2
-225 3 -8 2 -15 -2 -15 -8 0 -7 -229 2 -237 3 -3 1 -14 -4 -24 -6 -11 -6 -20
-1 -24 5 -3 6 -17 2 -33 -5 -15 -5 -37 0 -49 5 -13 4 -25 -1 -28 -6 -4 -7 -13
-1 -24 5 -9 6 -23 1 -31 -4 -7 -4 -24 1 -37 5 -14 5 -23 -1 -23 -6 0 -6 -9 -1
-23 5 -13 6 -30 1 -37 -5 -7 -4 -24 0 -36 6 -14 5 -26 0 -29 -6 -4 -7 -13 -1
-24 5 -9 6 -23 1 -31 -4 -7 -4 -24 1 -37 5 -14 5 -23 -1 -23 -6 0 -6 -9 -1
-23 5 -13 6 -30 1 -37 -5 -7 -4 -24 0 -36 6 -14 5 -26 0 -29 -6 -4 -7 -13 -1
-24 5 -9 6 -23 1 -31 -4 -7 -4 -24 1 -37 5 -14 5 -23 -1 -23 -6 0 -6 -9 -1
-23 5 -13 6 -30 1 -37 -5 -7 -4 -24 0 -36 6 -14 5 -26 0 -29 -6 -4 -7 -13 -1
-24 5 -9 6 -23 1 -31 -4 -7 -4 -24 1 -37 5 -14 5 -23 -1 -23 -6 0 -6 -9 -1
-23 5 -13 6 -30 1 -37 -5 -7 -4 -24 0 -36 6 -14 5 -26 0 -29 -6 -4 -7 -13 -1
-24 5 -9 6 -23 1 -31 -4 -7 -4 -24 1 -37 5 -13 5 -23 -1 -23 -5 0 -5 -12 0
-30 5 -18 5 -32 -1 -35 -5 -4 -5 -13 1 -24 5 -10 7 -21 3 -25 -8 -8 -7 -232 2
-245 3 -6 3 -11 -2 -11 -9 0 -8 -202 1 -225 3 -8 2 -15 -2 -15 -8 0 -7 -203 2
-225 3 -8 2 -15 -2 -15 -8 0 -7 -203 2 -225 3 -8 2 -15 -2 -15 -4 0 -6 -46 -4
-102 1 -57 2 -110 2 -118 -2 -161 -1 -241 5 -249 3 -6 3 -11 -2 -11 -9 0 -8
-202 1 -225 3 -8 2 -15 -2 -15 -8 0 -6 -219 2 -228 3 -3 1 -11 -5 -18 -8 -10
-4 -13 18 -12 67 2 141 -32 265 -122 168 -122 170 -123 184 -138 7 -6 16 -12
20 -12 4 0 14 -7 23 -15 9 -9 45 -37 81 -63 36 -26 74 -55 84 -64 11 -10 23
-18 26 -18 4 0 16 -8 28 -18 11 -10 57 -45 102 -77 167 -123 255 -190 258
-197 2 -4 8 -8 14 -8 6 0 32 -18 58 -40 26 -22 51 -40 54 -40 4 0 12 -5 19
-10 49 -42 67 -56 107 -83 25 -17 47 -33 50 -37 3 -3 21 -17 40 -30 19 -13 37
-27 40 -30 14 -15 80 -60 88 -60 6 0 12 -4 14 -9 2 -7 94 -79 168 -131 12 -8
97 -71 189 -140 93 -69 179 -133 192 -143 13 -9 51 -37 84 -61 72 -53 115 -65
140 -40 24 24 16 79 -35 234 -23 69 -43 136 -46 149 -3 14 -8 29 -12 35 -4 6
-7 13 -7 16 -1 6 1 -2 -77 245 -33 105 -61 195 -63 200 -1 6 -4 15 -5 20 -2 6
-9 25 -17 42 -7 18 -10 33 -7 33 4 0 2 6 -4 13 -5 6 -13 28 -17 47 -4 19 -11
40 -15 45 -5 6 -8 13 -8 18 -1 11 -61 208 -72 232 -4 11 -12 34 -16 50 -4 17
-8 32 -9 35 -5 21 -108 339 -114 355 -5 11 -13 36 -19 55 -33 110 -115 368
-122 385 -4 11 -18 54 -30 95 -12 41 -26 87 -32 102 -5 15 -9 28 -9 30 1 2 -5
20 -14 41 -8 20 -12 37 -9 37 4 0 1 7 -6 15 -14 17 -18 159 -6 209 22 90 81
164 197 247 34 24 75 56 92 71 17 16 37 28 43 28 7 0 14 4 16 8 2 5 53 45 113
89 61 45 115 87 122 92 7 6 16 11 22 11 5 0 11 4 13 8 2 5 73 60 158 123 85
62 160 117 165 122 45 36 238 177 241 177 3 0 11 6 18 13 15 14 32 27 197 149
131 96 137 101 247 183 37 27 69 53 70 57 2 4 8 8 13 8 9 0 140 96 170 125 9
8 21 15 27 15 5 0 12 3 14 8 2 4 58 48 125 97 155 115 182 156 126 192 -25 17
-103 18 -1322 19 -713 1 -1310 4 -1327 7 -96 17 -208 108 -250 204 -14 32 -46
123 -70 203 -25 80 -48 152 -51 160 -3 8 -7 21 -9 27 -1 7 -9 32 -17 55 -9 24
-37 111 -62 193 -26 83 -55 175 -66 205 -10 30 -31 98 -48 150 -16 52 -61 194
-100 316 -39 121 -71 226 -71 232 0 7 -4 20 -9 30 -8 14 -54 146 -56 162 -2
12 -68 220 -86 268 -10 28 -19 54 -18 57 0 7 -51 174 -61 200 -5 11 -18 52
-30 90 -38 117 -61 173 -80 190 -14 13 -20 14 -26 4z"/>
</g>
</svg>
